<svg xmlns="http://www.w3.org/2000/svg" xmlns:xlink="http://www.w3.org/1999/xlink" version="1.1" width="55" height="43" enable-background="new 0 0 100 100" xml:space="preserve"><rect id="backgroundrect" width="100%" height="100%" x="0" y="0" fill="none" stroke="none" class=""/>

<g class="currentLayer"><title>Layer 1</title><g id="svg_1" class="" fill="#101059" fill-opacity="1">
	<path fill="#101059" d="M54.18299865722656,5.6506588608026505 c-0.8830000162124634,-1.3220000267028809 -2.2279999256134033,-2.2220001220703125 -3.7869999408721924,-2.5320000648498535 L35.9379997253418,0.23565985262393951 c-0.385000079870224,-0.07700002193450928 -0.777999997138977,-0.11600000411272049 -1.1670000553131104,-0.11600000411272049 c-2.827000141143799,0 -5.28000020980835,2.015000104904175 -5.833000183105469,4.790999889373779 l-1.090999960899353,5.4710001945495605 l0.635999858379364,2.25 l-2.4070000648498535,-8.515000343322754 c-0.7229997515678406,-2.552999973297119 -3.078000068664551,-4.335000038146973 -5.728000164031982,-4.335000038146973 c-0.5460000038146973,0 -1.090999960899353,0.07600001245737076 -1.621000051498413,0.22599996626377106 l-14.185999870300293,4.011000156402588 c-1.5299999713897705,0.43299999833106995 -2.799999952316284,1.434999942779541 -3.5759999752044678,2.822999954223633 c-0.7759998440742493,1.3880000114440918 -0.9650001525878906,2.99399995803833 -0.5329998731613159,4.52400016784668 l7.685999870300293,27.187999725341797 c0.7229997515678406,2.552999973297119 3.078000068664551,4.335000038146973 5.7270002365112305,4.335000038146973 c0.5460000038146973,0 1.090999960899353,-0.07600001245737076 1.621000051498413,-0.22599996626377106 l11.722000122070312,-3.315000057220459 c0.29200008511543274,0.1080000028014183 0.5870000123977661,0.21000002324581146 0.8980000019073486,0.2720000147819519 l14.456999778747559,2.882999897003174 c0.385000079870224,0.07700002193450928 0.777999997138977,0.11600000411272049 1.1679999828338623,0.11600000411272049 c2.828000068664551,0 5.281000137329102,-2.015000104904175 5.834000110626221,-4.789999961853027 l5.52400016784668,-27.70800018310547 C55.381996154785156,8.562661424279213 55.06700134277344,6.97466017305851 54.18299865722656,5.6506588608026505 zM14.64999771118164,39.77666212618351 c-1.5450000762939453,0.4350000023841858 -3.2130000591278076,-0.5119998455047607 -3.6449999809265137,-2.0390000343322754 l-7.685999870300293,-27.187999725341797 c-0.21400000154972076,-0.7590000033378601 -0.1210000216960907,-1.555999994277954 0.26399993896484375,-2.24399995803833 c0.385000079870224,-0.6880000233650208 1.0149999856948853,-1.1859999895095825 1.7739999294281006,-1.399999976158142 l14.185999870300293,-4.011000156402588 c0.26399993896484375,-0.07400002330541611 0.5349998474121094,-0.1119999960064888 0.8050000071525574,-0.1119999960064888 c1.3140000104904175,0 2.4820001125335693,0.8849999904632568 2.8410000801086426,2.1510000228881836 l7.685999870300293,27.187999725341797 c0.21400000154972076,0.7599999904632568 0.1210000216960907,1.5570001602172852 -0.26399993896484375,2.244999885559082 c-0.385000079870224,0.6880000233650208 -1.0149999856948853,1.184999942779541 -1.7749998569488525,1.3990000486373901 L14.64999771118164,39.77666212618351 zM31.47699737548828,37.75665785372257 c-0.19099999964237213,0.14000000059604645 -0.39100000262260437,0.2669999897480011 -0.598000168800354,0.3830000162124634 C31.087997436523438,38.025662675499916 31.284000396728516,37.89465834200382 31.47699737548828,37.75665785372257 zM30.552997589111328,38.2996571213007 c-0.289000004529953,0.13899999856948853 -0.5870000123977661,0.26399993896484375 -0.9030001759529114,0.3530000150203705 C29.965999603271484,38.56365706026554 30.262001037597656,38.43565870821476 30.552997589111328,38.2996571213007 zM52.12799835205078,9.534661546349525 l-5.52400016784668,27.708999633789062 c-0.31200000643730164,1.567000150680542 -1.8949999809265137,2.630000114440918 -3.4739999771118164,2.318000078201294 l-11.137999534606934,-2.2209999561309814 c-0.0010000000474974513,0.0010000000474974513 -0.003000000026077032,0.0020000000949949026 -0.004000000189989805,0.004000000189989805 c0.4840000867843628,-0.43400001525878906 0.9150000214576721,-0.9310001730918884 1.2410000562667847,-1.5149998664855957 c0.7759998440742493,-1.3880000114440918 0.9650001525878906,-2.994999885559082 0.5329998731613159,-4.526000022888184 l-4.120999813079834,-14.576000213623047 l2.239000082015991,-11.230999946594238 c0.27400001883506775,-1.3769999742507935 1.4900000095367432,-2.377000093460083 2.8910000324249268,-2.377000093460083 c0.19300000369548798,0 0.3890000879764557,0.020000005140900612 0.5809998512268066,0.05800001323223114 l14.458000183105469,2.882999897003174 c0.7730000019073486,0.15400001406669617 1.440000057220459,0.6010000109672546 1.878000020980835,1.2569999694824219 C52.12699890136719,7.973660722374916 52.28199768066406,8.760659471154213 52.12799835205078,9.534661546349525 z" id="svg_2" fill-opacity="1"/>
	<circle fill="#101059" cx="7.1959991455078125" cy="10.652661323547363" r="1.4160000085830688" id="svg_3" fill-opacity="1"/>
	<circle fill="#101059" cx="26.945999145507812" cy="32.40266036987305" r="1.4160000085830688" id="svg_4" fill-opacity="1"/>
	<circle fill="#101059" cx="35.19599914550781" cy="7.069661617279053" r="1.4160000085830688" id="svg_5" fill-opacity="1"/>
	<circle fill="#101059" cx="42.94599914550781" cy="35.65365982055664" r="1.4160000085830688" id="svg_6" fill-opacity="1"/>
	<path fill="#101059" d="M46.368995666503906,17.225659623742104 c-0.021000005304813385,-0.03600000590085983 -0.04500000178813934,-0.07100002467632294 -0.07000002264976501,-0.10500001162290573 c-0.7300000190734863,-1.0089999437332153 -1.690000057220459,-1.6119999885559082 -2.934000015258789,-1.8470001220703125 c-1.25,-0.23200002312660217 -2.437000036239624,0.01900000497698784 -3.4820001125335693,0.7360000014305115 c-0.018000002950429916,0.012000002898275852 -0.03500000014901161,0.02300000563263893 -0.0520000122487545,0.03600000590085983 c-0.005000001285225153,-0.00800000037997961 -0.011000002734363079,-0.01600000075995922 -0.017000000923871994,-0.02300000563263893 c-0.6980002522468567,-1.0529999732971191 -1.7360000610351562,-1.7350000143051147 -3.005000114440918,-1.975000023841858 c-1.2740000486373901,-0.23800000548362732 -2.4850001335144043,0.027000006288290024 -3.4820001125335693,0.7360000014305115 c-1.0740000009536743,0.7370001673698425 -1.7130000591278076,1.7230000495910645 -1.9539999961853027,3.01200008392334 c-0.18700000643730164,0.9950000047683716 -0.056000012904405594,1.9690001010894775 0.3890000879764557,2.8930001258850098 c0.021000005304813385,0.0430000014603138 0.044000010937452316,0.0860000029206276 0.07000002264976501,0.12800000607967377 l4.505000114440918,7.414000034332275 c0.21900002658367157,0.36000001430511475 0.5799998641014099,0.6119998693466187 0.9940000176429749,0.6930002570152283 c0.09600000083446503,0.01900000497698784 0.19200000166893005,0.027000006288290024 0.2879999876022339,0.027000006288290024 c0.3200000822544098,0 0.6340000033378601,-0.10300000011920929 0.8949998617172241,-0.29600009322166443 l6.616000175476074,-4.914999961853027 c0.03200000151991844,-0.02300000563263893 0.06300000101327896,-0.04900000989437103 0.09300000220537186,-0.07500002533197403 c1.0429999828338623,-0.9130001664161682 1.694000005722046,-1.9259999990463257 1.8819999694824219,-2.930999994277954 c0.22699999809265137,-1.218999981880188 -0.003000000026077032,-2.372999906539917 -0.6819998621940613,-3.430999994277954 C46.404998779296875,17.27666212618351 46.38800048828125,17.25066114962101 46.368995666503906,17.225659623742104 zM44.15599822998047,20.183659806847572 c-0.04500000178813934,0.2420000433921814 -0.29700008034706116,0.6780001521110535 -0.867000162601471,1.187000036239624 L38.045997619628906,25.265660539269447 l-3.6070001125335693,-5.938000202178955 c-0.1459999680519104,-0.32700008153915405 -0.1820000261068344,-0.6319998502731323 -0.11699999868869781,-0.9800000190734863 c0.09400001168251038,-0.5019998550415039 0.29100000858306885,-0.8080000281333923 0.7239998579025269,-1.1039999723434448 c0.36600008606910706,-0.2609999179840088 0.7719998359680176,-0.32700008153915405 1.2120000123977661,-0.24700002372264862 c0.47700008749961853,0.09000000357627869 0.8030001521110535,0.3009999990463257 1.093999981880188,0.7380001544952393 c0.14300000667572021,0.19599997997283936 0.23000000417232513,0.4129999876022339 0.2629999816417694,0.6460000276565552 c0.10300000011920929,0.7879998683929443 0.6980002522468567,1.4210000038146973 1.499000072479248,1.5789999961853027 c0.08900002390146255,0.01600000075995922 0.24400000274181366,0.030000004917383194 0.33500000834465027,0.030000004917383194 c0.671999990940094,0 1.2920000553131104,-0.36500000953674316 1.6200000047683716,-0.9550001621246338 c0.11900000274181366,-0.21300004422664642 0.29200008511543274,-0.4009999930858612 0.5080000162124634,-0.5490000247955322 c0.40400001406669617,-0.2770000100135803 0.7919997572898865,-0.3479999899864197 1.2350000143051147,-0.26399993896484375 c0.4570000171661377,0.08500002324581146 0.7459999918937683,0.2540000081062317 1.0089999437332153,0.5910000205039978 c0.03600000590085983,0.062000010162591934 0.07600001245737076,0.12000001221895218 0.11800000071525574,0.17600004374980927 C44.172996520996094,19.38065840303898 44.237998962402344,19.741658464074135 44.15599822998047,20.183659806847572 z" id="svg_7" fill-opacity="1"/>
	<path fill="#101059" d="M16.15599822998047,12.758660569787025 c-0.3830000162124634,-0.3440000116825104 -0.9150000214576721,-0.46799999475479126 -1.4119999408721924,-0.328000009059906 c-0.4950000047683716,0.14100000262260437 -0.8840000033378601,0.5249998569488525 -1.0299999713897705,1.0190000534057617 l-2.634999990463257,8.930999755859375 c-0.1639999896287918,0.5550000071525574 0.006000000052154064,1.1540000438690186 0.4360000193119049,1.5399999618530273 l6.923999786376953,6.2230000495910645 c0.27900001406669617,0.25099998712539673 0.6370000243186951,0.385000079870224 1.0019999742507935,0.385000079870224 c0.13599996268749237,0 0.27400001883506775,-0.01900000497698784 0.4090000092983246,-0.05700001120567322 c0.4950000047683716,-0.14100000262260437 0.8840000033378601,-0.5239998698234558 1.0299999713897705,-1.0190000534057617 l2.635999917984009,-8.928000450134277 c0.1639999896287918,-0.5550000071525574 -0.006000000052154064,-1.152999997138977 -0.4360000193119049,-1.5399999618530273 L16.15599822998047,12.758660569787025 zM18.676998138427734,26.321660295128822 l-4.452000141143799,-4.000999927520752 l1.694000005722046,-5.742000102996826 l4.453000068664551,4.002999782562256 L18.676998138427734,26.321660295128822 z" id="svg_8" fill-opacity="1"/>
</g></g></svg>