<svg xmlns="http://www.w3.org/2000/svg" xmlns:xlink="http://www.w3.org/1999/xlink" version="1.1" id="Your_Icon" x="0px" y="0px" width="100px" height="100px" viewBox="5.0 -10.0 100.0 135.0" enable-background="new 0 0 100 100" xml:space="preserve">
<g>
	<path fill="#000000" d="M76.487,34.315c-0.883-1.322-2.228-2.222-3.787-2.532L58.242,28.9c-0.385-0.077-0.778-0.116-1.167-0.116   c-2.827,0-5.28,2.015-5.833,4.791l-1.091,5.471l0.636,2.25l-2.407-8.515c-0.723-2.553-3.078-4.335-5.728-4.335   c-0.546,0-1.091,0.076-1.621,0.226l-14.186,4.011c-1.53,0.433-2.8,1.435-3.576,2.823c-0.776,1.388-0.965,2.994-0.533,4.524   l7.686,27.188c0.723,2.553,3.078,4.335,5.727,4.335c0.546,0,1.091-0.076,1.621-0.226l11.722-3.315   c0.292,0.108,0.587,0.21,0.898,0.272l14.457,2.883c0.385,0.077,0.778,0.116,1.168,0.116c2.828,0,5.281-2.015,5.834-4.79   l5.524-27.708C77.686,37.227,77.371,35.639,76.487,34.315z M36.954,68.441c-1.545,0.435-3.213-0.512-3.645-2.039l-7.686-27.188   c-0.214-0.759-0.121-1.556,0.264-2.244c0.385-0.688,1.015-1.186,1.774-1.4l14.186-4.011c0.264-0.074,0.535-0.112,0.805-0.112   c1.314,0,2.482,0.885,2.841,2.151l7.686,27.188c0.214,0.76,0.121,1.557-0.264,2.245c-0.385,0.688-1.015,1.185-1.775,1.399   L36.954,68.441z M53.781,66.421c-0.191,0.14-0.391,0.267-0.598,0.383C53.392,66.69,53.588,66.559,53.781,66.421z M52.857,66.964   c-0.289,0.139-0.587,0.264-0.903,0.353C52.27,67.228,52.566,67.1,52.857,66.964z M74.432,38.199l-5.524,27.709   c-0.312,1.567-1.895,2.63-3.474,2.318l-11.138-2.221c-0.001,0.001-0.003,0.002-0.004,0.004c0.484-0.434,0.915-0.931,1.241-1.515   c0.776-1.388,0.965-2.995,0.533-4.526l-4.121-14.576l2.239-11.231c0.274-1.377,1.49-2.377,2.891-2.377   c0.193,0,0.389,0.02,0.581,0.058l14.458,2.883c0.773,0.154,1.44,0.601,1.878,1.257C74.431,36.638,74.586,37.425,74.432,38.199z"/>
	<circle fill="#000000" cx="29.5" cy="39.317" r="1.416"/>
	<circle fill="#000000" cx="49.25" cy="61.067" r="1.416"/>
	<circle fill="#000000" cx="57.5" cy="35.734" r="1.416"/>
	<circle fill="#000000" cx="65.25" cy="64.318" r="1.416"/>
	<path fill="#000000" d="M68.673,45.89c-0.021-0.036-0.045-0.071-0.07-0.105c-0.73-1.009-1.69-1.612-2.934-1.847   c-1.25-0.232-2.437,0.019-3.482,0.736c-0.018,0.012-0.035,0.023-0.052,0.036c-0.005-0.008-0.011-0.016-0.017-0.023   c-0.698-1.053-1.736-1.735-3.005-1.975c-1.274-0.238-2.485,0.027-3.482,0.736c-1.074,0.737-1.713,1.723-1.954,3.012   c-0.187,0.995-0.056,1.969,0.389,2.893c0.021,0.043,0.044,0.086,0.07,0.128l4.505,7.414c0.219,0.36,0.58,0.612,0.994,0.693   c0.096,0.019,0.192,0.027,0.288,0.027c0.32,0,0.634-0.103,0.895-0.296l6.616-4.915c0.032-0.023,0.063-0.049,0.093-0.075   c1.043-0.913,1.694-1.926,1.882-2.931c0.227-1.219-0.003-2.373-0.682-3.431C68.709,45.941,68.692,45.915,68.673,45.89z    M66.46,48.848c-0.045,0.242-0.297,0.678-0.867,1.187L60.35,53.93l-3.607-5.938c-0.146-0.327-0.182-0.632-0.117-0.98   c0.094-0.502,0.291-0.808,0.724-1.104c0.366-0.261,0.772-0.327,1.212-0.247c0.477,0.09,0.803,0.301,1.094,0.738   c0.143,0.196,0.23,0.413,0.263,0.646c0.103,0.788,0.698,1.421,1.499,1.579c0.089,0.016,0.244,0.03,0.335,0.03   c0.672,0,1.292-0.365,1.62-0.955c0.119-0.213,0.292-0.401,0.508-0.549c0.404-0.277,0.792-0.348,1.235-0.264   c0.457,0.085,0.746,0.254,1.009,0.591c0.036,0.062,0.076,0.12,0.118,0.176C66.477,48.045,66.542,48.406,66.46,48.848z"/>
	<path fill="#000000" d="M38.46,41.423c-0.383-0.344-0.915-0.468-1.412-0.328c-0.495,0.141-0.884,0.525-1.03,1.019l-2.635,8.931   c-0.164,0.555,0.006,1.154,0.436,1.54l6.924,6.223c0.279,0.251,0.637,0.385,1.002,0.385c0.136,0,0.274-0.019,0.409-0.057   c0.495-0.141,0.884-0.524,1.03-1.019l2.636-8.928c0.164-0.555-0.006-1.153-0.436-1.54L38.46,41.423z M40.981,54.986l-4.452-4.001   l1.694-5.742l4.453,4.003L40.981,54.986z"/>
</g>
<text x="0.0" y="117.5" font-size="5.0" font-weight="bold" font-family="Helvetica Neue, Helvetica, Arial-Unicode, Arial, Sans-serif" fill="#000000">Created by Raymond Felix</text><text x="0.0" y="122.5" font-size="5.0" font-weight="bold" font-family="Helvetica Neue, Helvetica, Arial-Unicode, Arial, Sans-serif" fill="#000000">from the Noun Project</text></svg>