<svg xmlns="http://www.w3.org/2000/svg" xmlns:xlink="http://www.w3.org/1999/xlink" version="1.1" id="Layer_1" x="0px" y="0px" width="90px" height="90px" viewBox="4.5 -9.0 90.0 121.5" enable-background="new 0 0 90 90" xml:space="preserve">
<g>
	<path d="M50.998,34.341l-5.272-2.823c-0.428-0.229-0.971,0.044-1.207,0.606l-5.341,12.73c-0.236,0.563-0.079,1.21,0.349,1.439   l2.54,1.36l-2.498,10.383c-0.14,0.584,0.079,0.701,0.487,0.261l10.912-11.778c0.408-0.441,0.392-0.988-0.036-1.218l-4.541-2.432   l4.772-7.188C51.5,35.173,51.426,34.57,50.998,34.341z"/>
	<path d="M81.414,17.965H8.586c-3.651,0-6.621,2.97-6.621,6.621v40.828c0,3.651,2.97,6.621,6.621,6.621h72.827   c3.651,0,6.621-2.97,6.621-6.621V24.586C88.035,20.935,85.065,17.965,81.414,17.965z M81.414,66.738h-0.885l2.209-2.21v0.886   C82.738,66.144,82.144,66.738,81.414,66.738z M78.254,66.738h-2.742l7.226-7.229v2.743L78.254,66.738z M73.237,66.738h-2.742   l12.243-12.247v2.743L73.237,66.738z M68.22,66.738h-2.742l17.26-17.266v2.743L68.22,66.738z M63.203,66.738H60.46l22.277-22.285   v2.743L63.203,66.738z M58.186,66.738h-2.742l27.294-27.303v2.743L58.186,66.738z M53.169,66.738h-2.742l32.312-32.322v2.743   L53.169,66.738z M7.262,65.414v-0.666L28.164,43.84c-0.017,0.384-0.027,0.771-0.027,1.16c0,0.525,0.021,1.043,0.052,1.559   L8.108,66.646C7.614,66.453,7.262,65.975,7.262,65.414z M8.599,23.262h2.743l-4.08,4.081v-2.744L8.599,23.262z M13.616,23.262   h2.743l-9.097,9.099v-2.743L13.616,23.262z M18.633,23.262h2.743L7.262,37.38v-2.743L18.633,23.262z M23.65,23.262h2.743   L7.262,42.398v-2.743L23.65,23.262z M28.667,23.262h2.743L7.262,47.417v-2.743L28.667,23.262z M33.684,23.262h2.743L7.262,52.436   v-2.743L33.684,23.262z M38.701,23.262h2.743l-1.922,1.922c-3.743,1.603-6.896,4.794-8.927,8.929L7.262,57.454v-2.743   L38.701,23.262z M81.414,23.262c0.052,0,0.101,0.009,0.152,0.015L61.788,43.06c-0.062-0.83-0.162-1.645-0.299-2.444l17.349-17.354   H81.414z M82.738,24.586v2.537L61.667,48.2c0.119-0.958,0.181-1.939,0.191-2.934l20.861-20.868   C82.728,24.46,82.738,24.521,82.738,24.586z M45,62.427c-7.351,0-13.332-7.817-13.332-17.427c0-9.609,5.981-17.426,13.332-17.426   S58.332,35.391,58.332,45C58.332,54.61,52.351,62.427,45,62.427z M61.093,38.737c-0.182-0.72-0.397-1.421-0.637-2.106   l13.365-13.369h2.743L61.093,38.737z M59.815,34.997c-0.278-0.632-0.582-1.243-0.909-1.834l9.898-9.901h2.743L59.815,34.997z    M58.05,31.744c-0.364-0.553-0.75-1.082-1.157-1.586l6.894-6.896h2.743L58.05,31.744z M55.827,28.949   c-0.452-0.472-0.923-0.917-1.414-1.329l4.357-4.358h2.743L55.827,28.949z M53.119,26.639c-0.555-0.38-1.129-0.722-1.719-1.024   l2.352-2.353h2.743L53.119,26.639z M49.821,24.92c-0.694-0.258-1.406-0.463-2.135-0.608l1.05-1.05h2.743L49.821,24.92z    M45.66,24.063c-0.219-0.011-0.438-0.021-0.66-0.021c-0.765,0-1.517,0.07-2.255,0.193l0.974-0.974h2.743L45.66,24.063z    M29.153,37.831c-0.33,1.123-0.58,2.293-0.752,3.496L7.262,62.473V59.73L29.153,37.831z M28.395,48.628   c0.111,0.785,0.256,1.555,0.435,2.308L13.032,66.738H10.29L28.395,48.628z M29.326,52.715c0.219,0.686,0.466,1.354,0.74,2.003   L18.049,66.738h-2.742L29.326,52.715z M30.792,56.267c0.31,0.602,0.644,1.183,1.001,1.742l-8.727,8.73h-2.742L30.792,56.267z    M32.727,59.35c0.396,0.523,0.814,1.021,1.251,1.491l-5.895,5.897h-2.742L32.727,59.35z M35.123,61.972   c0.488,0.44,0.996,0.847,1.521,1.221L33.1,66.738h-2.742L35.123,61.972z M38.034,64.079c0.6,0.34,1.217,0.639,1.851,0.891   l-1.768,1.769h-2.742L38.034,64.079z M41.6,65.53c0.768,0.196,1.556,0.323,2.358,0.384l-0.824,0.824h-2.742L41.6,65.53z    M46.253,65.894c1.223-0.112,2.411-0.386,3.548-0.806l-1.65,1.651h-2.742L46.253,65.894z M59.756,55.13   c0.582-1.304,1.054-2.692,1.403-4.147l21.578-21.585v2.743L59.756,55.13z"/>
</g>
<text x="0.0" y="105.75" font-size="4.5" font-weight="bold" font-family="Helvetica Neue, Helvetica, Arial-Unicode, Arial, Sans-serif" fill="#000000">Created by Nate Eul</text><text x="0.0" y="110.25" font-size="4.5" font-weight="bold" font-family="Helvetica Neue, Helvetica, Arial-Unicode, Arial, Sans-serif" fill="#000000">from the Noun Project</text></svg>